<?xml version="1.0" encoding="utf-8"?>
<!-- Generator: Adobe Illustrator 16.0.0, SVG Export Plug-In . SVG Version: 6.00 Build 0)  -->
<!DOCTYPE svg PUBLIC "-//W3C//DTD SVG 1.1//EN" "http://www.w3.org/Graphics/SVG/1.1/DTD/svg11.dtd">
<svg version="1.1" id="Шар_1" xmlns="http://www.w3.org/2000/svg" xmlns:xlink="http://www.w3.org/1999/xlink" x="0px" y="0px"
	 width="43px" height="36px" viewBox="0 0 43 36" enable-background="new 0 0 43 36" xml:space="preserve">
<g>
	<g transform="translate(-136 -965)">
		<g>
			<g>
				<path id="jjrha" fill="#97835E" d="M157,965l-1.664,5.335H150l4.315,3.303l-1.66,5.362l4.345-3.314l4.334,3.314l-1.66-5.362
					l4.326-3.303h-5.343L157,965z"/>
			</g>
		</g>
		<g>
			<g>
				<path id="jjrhc" fill="#97835E" d="M141.336,992.333H136l4.315,3.3l-1.66,5.367l4.345-3.311l4.334,3.311l-1.66-5.368l4.326-3.3
					h-5.347L143,987L141.336,992.333z"/>
			</g>
		</g>
		<g>
			<g>
				<path id="jjrhe" fill="#97835E" d="M170.333,992.333H165l4.316,3.3l-1.662,5.367l4.344-3.311l4.34,3.311l-1.666-5.368l4.328-3.3
					h-5.346L171.998,987L170.333,992.333z"/>
			</g>
		</g>
	</g>
</g>
</svg>
